<svg width="56" height="32" viewBox="0 0 56 32" fill="none" xmlns="http://www.w3.org/2000/svg">
<rect width="56" height="32" rx="8" fill="#AA3333" fill-opacity="0.2"/>
<path d="M12.3574 18.5156V17.0508H15.5039V18.5156H12.3574ZM20.8242 21H19.0137V16.043L19.0312 15.2285L19.0605 14.3379C18.7598 14.6387 18.5508 14.8359 18.4336 14.9297L17.4492 15.7207L16.5762 14.6309L19.3359 12.4336H20.8242V21ZM25.4121 19.7402C25.209 20.5293 24.8652 21.4648 24.3809 22.5469H23.0918C23.3457 21.5078 23.543 20.5273 23.6836 19.6055H25.3242L25.4121 19.7402ZM32.3379 14.3496C32.3379 14.8848 32.1758 15.3398 31.8516 15.7148C31.5273 16.0898 31.0723 16.3477 30.4863 16.4883V16.5234C31.1777 16.6094 31.7012 16.8203 32.0566 17.1562C32.4121 17.4883 32.5898 17.9375 32.5898 18.5039C32.5898 19.3281 32.291 19.9707 31.6934 20.4316C31.0957 20.8887 30.2422 21.1172 29.1328 21.1172C28.2031 21.1172 27.3789 20.9629 26.6602 20.6543V19.1133C26.9922 19.2812 27.3574 19.418 27.7559 19.5234C28.1543 19.6289 28.5488 19.6816 28.9395 19.6816C29.5371 19.6816 29.9785 19.5801 30.2637 19.377C30.5488 19.1738 30.6914 18.8477 30.6914 18.3984C30.6914 17.9961 30.5273 17.7109 30.1992 17.543C29.8711 17.375 29.3477 17.291 28.6289 17.291H27.9785V15.9023H28.6406C29.3047 15.9023 29.7891 15.8164 30.0938 15.6445C30.4023 15.4688 30.5566 15.1699 30.5566 14.748C30.5566 14.0996 30.1504 13.7754 29.3379 13.7754C29.0566 13.7754 28.7695 13.8223 28.4766 13.916C28.1875 14.0098 27.8652 14.1719 27.5098 14.4023L26.6719 13.1543C27.4531 12.5918 28.3848 12.3105 29.4668 12.3105C30.3535 12.3105 31.0527 12.4902 31.5645 12.8496C32.0801 13.209 32.3379 13.709 32.3379 14.3496ZM34.9043 15C34.9043 15.4961 34.9473 15.8672 35.0332 16.1133C35.123 16.3555 35.2656 16.4766 35.4609 16.4766C35.8359 16.4766 36.0234 15.9844 36.0234 15C36.0234 14.0234 35.8359 13.5352 35.4609 13.5352C35.2656 13.5352 35.123 13.6562 35.0332 13.8984C34.9473 14.1367 34.9043 14.5039 34.9043 15ZM37.5 14.9883C37.5 15.8867 37.3262 16.5625 36.9785 17.0156C36.6309 17.4648 36.1211 17.6895 35.4492 17.6895C34.8047 17.6895 34.3066 17.459 33.9551 16.998C33.6035 16.5332 33.4277 15.8633 33.4277 14.9883C33.4277 13.2031 34.1016 12.3105 35.4492 12.3105C36.1094 12.3105 36.6152 12.543 36.9668 13.0078C37.3223 13.4688 37.5 14.1289 37.5 14.9883ZM41.5312 12.4336L36.7793 21H35.373L40.125 12.4336H41.5312ZM40.9043 18.4219C40.9043 18.918 40.9473 19.2891 41.0332 19.5352C41.123 19.7773 41.2656 19.8984 41.4609 19.8984C41.8359 19.8984 42.0234 19.4062 42.0234 18.4219C42.0234 17.4453 41.8359 16.957 41.4609 16.957C41.2656 16.957 41.123 17.0781 41.0332 17.3203C40.9473 17.5586 40.9043 17.9258 40.9043 18.4219ZM43.5 18.4102C43.5 19.3047 43.3262 19.9785 42.9785 20.4316C42.6309 20.8809 42.1211 21.1055 41.4492 21.1055C40.8047 21.1055 40.3066 20.875 39.9551 20.4141C39.6035 19.9492 39.4277 19.2812 39.4277 18.4102C39.4277 16.625 40.1016 15.7324 41.4492 15.7324C42.1094 15.7324 42.6152 15.9648 42.9668 16.4297C43.3223 16.8906 43.5 17.5508 43.5 18.4102Z" fill="#F07979"/>
</svg>
