<svg width="59" height="32" viewBox="0 0 59 32" fill="none" xmlns="http://www.w3.org/2000/svg">
<rect width="59" height="32" rx="8" fill="#33AA54" fill-opacity="0.2"/>
<path d="M14.7832 17.4141H12.5156V16.1309H14.7832V13.8457H16.0664V16.1309H18.334V17.4141H16.0664V19.6699H14.7832V17.4141ZM25.2773 16.7168C25.2773 18.2129 25.0312 19.3203 24.5391 20.0391C24.0508 20.7578 23.2969 21.1172 22.2773 21.1172C21.2891 21.1172 20.543 20.7461 20.0391 20.0039C19.5391 19.2617 19.2891 18.166 19.2891 16.7168C19.2891 15.2051 19.5332 14.0918 20.0215 13.377C20.5098 12.6582 21.2617 12.2988 22.2773 12.2988C23.2656 12.2988 24.0117 12.6738 24.5156 13.4238C25.0234 14.1738 25.2773 15.2715 25.2773 16.7168ZM21.0879 16.7168C21.0879 17.7676 21.1777 18.5215 21.3574 18.9785C21.541 19.4316 21.8477 19.6582 22.2773 19.6582C22.6992 19.6582 23.0039 19.4277 23.1914 18.9668C23.3789 18.5059 23.4727 17.7559 23.4727 16.7168C23.4727 15.666 23.377 14.9121 23.1855 14.4551C22.998 13.9941 22.6953 13.7637 22.2773 13.7637C21.8516 13.7637 21.5469 13.9941 21.3633 14.4551C21.1797 14.9121 21.0879 15.666 21.0879 16.7168ZM28.4004 19.7402C28.1973 20.5293 27.8535 21.4648 27.3691 22.5469H26.0801C26.334 21.5078 26.5312 20.5273 26.6719 19.6055H28.3125L28.4004 19.7402ZM32.625 12.3223C33.4453 12.3223 34.1055 12.5098 34.6055 12.8848C35.1094 13.2559 35.3613 13.7578 35.3613 14.3906C35.3613 14.8281 35.2402 15.2188 34.998 15.5625C34.7559 15.9023 34.3652 16.207 33.8262 16.4766C34.4668 16.8203 34.9258 17.1797 35.2031 17.5547C35.4844 17.9258 35.625 18.334 35.625 18.7793C35.625 19.4824 35.3496 20.0488 34.7988 20.4785C34.248 20.9043 33.5234 21.1172 32.625 21.1172C31.6875 21.1172 30.9512 20.918 30.416 20.5195C29.8809 20.1211 29.6133 19.5566 29.6133 18.8262C29.6133 18.3379 29.7422 17.9043 30 17.5254C30.2617 17.1465 30.6797 16.8125 31.2539 16.5234C30.7656 16.2148 30.4141 15.8848 30.1992 15.5332C29.9844 15.1816 29.877 14.7969 29.877 14.3789C29.877 13.7656 30.1309 13.2695 30.6387 12.8906C31.1465 12.5117 31.8086 12.3223 32.625 12.3223ZM31.2891 18.7207C31.2891 19.0566 31.4062 19.3184 31.6406 19.5059C31.875 19.6934 32.1953 19.7871 32.6016 19.7871C33.0508 19.7871 33.3867 19.6914 33.6094 19.5C33.832 19.3047 33.9434 19.0488 33.9434 18.7324C33.9434 18.4707 33.832 18.2266 33.6094 18C33.3906 17.7695 33.0332 17.5254 32.5371 17.2676C31.7051 17.6504 31.2891 18.1348 31.2891 18.7207ZM32.6133 13.6465C32.3047 13.6465 32.0547 13.7266 31.8633 13.8867C31.6758 14.043 31.582 14.2539 31.582 14.5195C31.582 14.7539 31.6562 14.9648 31.8047 15.1523C31.957 15.3359 32.2305 15.5254 32.625 15.7207C33.0078 15.541 33.2754 15.3574 33.4277 15.1699C33.5801 14.9824 33.6562 14.7656 33.6562 14.5195C33.6562 14.25 33.5586 14.0371 33.3633 13.8809C33.168 13.7246 32.918 13.6465 32.6133 13.6465ZM37.8926 15C37.8926 15.4961 37.9355 15.8672 38.0215 16.1133C38.1113 16.3555 38.2539 16.4766 38.4492 16.4766C38.8242 16.4766 39.0117 15.9844 39.0117 15C39.0117 14.0234 38.8242 13.5352 38.4492 13.5352C38.2539 13.5352 38.1113 13.6562 38.0215 13.8984C37.9355 14.1367 37.8926 14.5039 37.8926 15ZM40.4883 14.9883C40.4883 15.8867 40.3145 16.5625 39.9668 17.0156C39.6191 17.4648 39.1094 17.6895 38.4375 17.6895C37.793 17.6895 37.2949 17.459 36.9434 16.998C36.5918 16.5332 36.416 15.8633 36.416 14.9883C36.416 13.2031 37.0898 12.3105 38.4375 12.3105C39.0977 12.3105 39.6035 12.543 39.9551 13.0078C40.3105 13.4688 40.4883 14.1289 40.4883 14.9883ZM44.5195 12.4336L39.7676 21H38.3613L43.1133 12.4336H44.5195ZM43.8926 18.4219C43.8926 18.918 43.9355 19.2891 44.0215 19.5352C44.1113 19.7773 44.2539 19.8984 44.4492 19.8984C44.8242 19.8984 45.0117 19.4062 45.0117 18.4219C45.0117 17.4453 44.8242 16.957 44.4492 16.957C44.2539 16.957 44.1113 17.0781 44.0215 17.3203C43.9355 17.5586 43.8926 17.9258 43.8926 18.4219ZM46.4883 18.4102C46.4883 19.3047 46.3145 19.9785 45.9668 20.4316C45.6191 20.8809 45.1094 21.1055 44.4375 21.1055C43.793 21.1055 43.2949 20.875 42.9434 20.4141C42.5918 19.9492 42.416 19.2812 42.416 18.4102C42.416 16.625 43.0898 15.7324 44.4375 15.7324C45.0977 15.7324 45.6035 15.9648 45.9551 16.4297C46.3105 16.8906 46.4883 17.5508 46.4883 18.4102Z" fill="#79F09A"/>
</svg>
