<svg width="37" height="24" viewBox="0 0 37 24" fill="none" xmlns="http://www.w3.org/2000/svg">
<rect x="3.44702" y="0.846191" width="33.2925" height="18.057" rx="4.51424" transform="rotate(8.8622 3.44702 0.846191)" fill="#33AA54" fill-opacity="0.2"/>
<path d="M10.2272 11.5087L8.96288 11.3115L9.07444 10.5961L10.3387 10.7932L10.5374 9.51916L11.2528 9.63071L11.0542 10.9048L12.3184 11.1019L12.2069 11.8174L10.9426 11.6202L10.7465 12.878L10.0311 12.7664L10.2272 11.5087ZM16.1387 12.0322C16.0087 12.8663 15.7752 13.4624 15.4383 13.8203C15.1036 14.1786 14.652 14.3134 14.0836 14.2248C13.5325 14.1389 13.1488 13.8671 12.9324 13.4095C12.7181 12.9523 12.674 12.3196 12.8 11.5116C12.9314 10.6688 13.1643 10.0693 13.4987 9.71318C13.8334 9.3549 14.2839 9.2199 14.8502 9.30819C15.4012 9.3941 15.7845 9.66804 16.0003 10.13C16.2182 10.5923 16.2644 11.2264 16.1387 12.0322ZM13.8029 11.668C13.7116 12.2539 13.6961 12.682 13.7566 12.9524C13.8195 13.221 13.9708 13.374 14.2104 13.4114C14.4456 13.448 14.6355 13.346 14.7801 13.1053C14.9247 12.8646 15.0422 12.4546 15.1325 11.8753C15.2239 11.2895 15.2361 10.8608 15.1691 10.5893C15.1046 10.3161 14.9558 10.1612 14.7228 10.1249C14.4854 10.0879 14.2955 10.1899 14.1531 10.4309C14.011 10.6698 13.8943 11.0821 13.8029 11.668ZM17.6171 13.9894C17.4353 14.4117 17.1623 14.9034 16.7982 15.4646L16.0795 15.3525C16.3113 14.7953 16.5066 14.2657 16.6651 13.764L17.5798 13.9066L17.6171 13.9894ZM20.6174 10.2208C21.0747 10.2921 21.4265 10.454 21.6727 10.7066C21.9214 10.9573 22.0182 11.2591 21.9632 11.6119C21.9252 11.8558 21.8237 12.0631 21.6588 12.2337C21.4942 12.4021 21.2499 12.538 20.926 12.6414C21.2532 12.8888 21.4779 13.129 21.5999 13.3622C21.7245 13.5936 21.7674 13.8334 21.7287 14.0817C21.6676 14.4737 21.4648 14.7656 21.1204 14.9572C20.7763 15.1468 20.3537 15.2025 19.8528 15.1244C19.3301 15.0429 18.9369 14.8678 18.6732 14.5991C18.4094 14.3304 18.3093 13.9925 18.3728 13.5852C18.4153 13.313 18.5248 13.0824 18.7015 12.8936C18.8804 12.7051 19.1424 12.5552 19.4877 12.4439C19.2423 12.2294 19.075 12.0148 18.9858 11.8002C18.8966 11.5855 18.8701 11.3616 18.9064 11.1286C18.9598 10.7866 19.1444 10.5321 19.4605 10.365C19.7766 10.1979 20.1622 10.1498 20.6174 10.2208ZM19.3163 13.6721C19.2871 13.8594 19.3297 14.0155 19.4441 14.1404C19.5584 14.2653 19.7289 14.3454 19.9554 14.3807C20.2058 14.4198 20.4015 14.3956 20.5422 14.3083C20.6834 14.2187 20.7677 14.0858 20.7952 13.9094C20.8179 13.7634 20.7771 13.6176 20.6726 13.472C20.5707 13.3244 20.3927 13.1573 20.1385 12.9704C19.6413 13.1115 19.3672 13.3454 19.3163 13.6721ZM20.4957 10.9581C20.3237 10.9313 20.1773 10.9542 20.0567 11.0268C19.9386 11.0977 19.868 11.2071 19.8449 11.3552C19.8245 11.4859 19.8475 11.6099 19.914 11.7274C19.983 11.843 20.119 11.9724 20.322 12.1156C20.551 12.0487 20.7162 11.9696 20.8174 11.8783C20.9186 11.787 20.9799 11.6727 21.0013 11.5355C21.0248 11.3852 20.9888 11.2581 20.8935 11.154C20.7982 11.0499 20.6656 10.9846 20.4957 10.9581ZM23.3215 12.1717C23.2784 12.4483 23.2701 12.6589 23.2966 12.8036C23.3256 12.9464 23.3946 13.0263 23.5035 13.0433C23.7126 13.0759 23.8599 12.8178 23.9455 12.269C24.0304 11.7245 23.9683 11.436 23.7592 11.4034C23.6503 11.3864 23.5603 11.4415 23.4891 11.5687C23.4205 11.6941 23.3646 11.8951 23.3215 12.1717ZM24.7697 12.3908C24.6916 12.8917 24.536 13.2534 24.3028 13.4758C24.0699 13.696 23.7661 13.7769 23.3915 13.7185C23.0322 13.6625 22.7745 13.4907 22.6186 13.2032C22.463 12.9134 22.4232 12.5246 22.4993 12.0368C22.6545 11.0415 23.1078 10.6024 23.8591 10.7196C24.2272 10.7769 24.489 10.9505 24.6446 11.2402C24.8028 11.5281 24.8445 11.9117 24.7697 12.3908ZM27.2394 11.3169L23.8453 15.6799L23.0613 15.5577L26.4554 11.1946L27.2394 11.3169ZM26.3693 14.6011C26.3262 14.8777 26.3179 15.0883 26.3444 15.233C26.3734 15.3759 26.4424 15.4558 26.5513 15.4728C26.7604 15.5054 26.9077 15.2472 26.9933 14.6984C27.0782 14.1539 27.0161 13.8654 26.807 13.8328C26.6981 13.8158 26.6081 13.8709 26.5369 13.9982C26.4683 14.1235 26.4124 14.3245 26.3693 14.6011ZM27.8175 14.8202C27.7398 15.319 27.5843 15.6796 27.3511 15.902C27.1182 16.1222 26.8144 16.2031 26.4398 16.1447C26.0805 16.0887 25.8228 15.9169 25.6669 15.6293C25.5113 15.3396 25.4713 14.9519 25.5471 14.4662C25.7023 13.4709 26.1555 13.0318 26.9069 13.149C27.275 13.2064 27.5368 13.3799 27.6924 13.6697C27.8505 13.9576 27.8922 14.3411 27.8175 14.8202Z" fill="#79F09A"/>
</svg>
